<svg width="24" height="24" viewBox="0 0 24 24" fill="none" xmlns="http://www.w3.org/2000/svg">
<g clip-path="url(#clip0_74_316)">
<path d="M2.82211 15.6116L0.0265303 18.4071C-0.0204853 18.452 -0.00290722 18.533 0.062624 18.5525L3.42956 19.5752C3.90722 19.7205 4.27941 20.0927 4.42467 20.5703L5.44744 23.9373C5.46684 24.0028 5.54794 24.0204 5.59275 23.9734L9.33328 20.2328C6.56573 19.5454 4.28091 17.82 2.82211 15.6116Z" fill="white"/>
<path d="M23.9735 18.4071L21.1779 15.6116C19.7295 17.8042 17.4518 19.541 14.6666 20.2329L18.4072 23.9734C18.452 24.0204 18.5331 24.0029 18.5525 23.9373L19.5752 20.5704C19.7205 20.0927 20.0927 19.7205 20.5704 19.5753L23.9373 18.5525C24.003 18.533 24.0204 18.4518 23.9735 18.4071Z" fill="white"/>
<path d="M21.5749 9.57516C21.5749 4.29577 17.2798 0.000244141 12 0.000244141C6.72011 0.000244141 2.42505 4.29577 2.42505 9.57516C2.42505 14.3487 5.93969 18.3272 10.5286 19.0376C16.3414 19.9418 21.5749 15.4173 21.5749 9.57516ZM4.53625 11.9086C2.95717 6.86007 6.75846 1.7566 12 1.7566C17.8553 1.7566 21.7254 8.04953 18.8712 13.3049C15.5762 19.3495 6.6101 18.505 4.53625 11.9086Z" fill="white"/>
<path d="M12 3.16284C8.4643 3.16284 5.58716 6.03951 5.58716 9.5752C5.58716 14.777 11.4848 17.8106 15.7082 14.804C16.613 14.1617 17.3499 13.2836 17.8241 12.2578C19.7943 8.01623 16.6535 3.16284 12 3.16284ZM15.2366 8.67572C15.1565 8.73515 11.2606 11.6267 11.2383 11.6433C10.9569 11.853 10.5566 11.8249 10.3064 11.5599C8.51685 9.65273 8.66 9.80503 8.61706 9.75994C8.31636 9.43973 8.37913 8.92181 8.75535 8.68373C8.75581 8.68326 8.75628 8.68279 8.75675 8.68279C9.03613 8.50748 9.40878 8.54826 9.64269 8.79764C10.0211 9.20095 9.76639 8.9295 10.9031 10.1406C11.0256 10.0492 12.4674 8.97961 14.451 7.50764C14.7627 7.27608 15.2033 7.34123 15.4344 7.65295C15.6462 7.9372 15.6454 8.37281 15.2366 8.67572Z" fill="white"/>
</g>
<defs>
<clipPath id="clip0_74_316">
<rect width="24" height="24" fill="white"/>
</clipPath>
</defs>
</svg>
