<svg width="28" height="28" viewBox="0 0 28 28" fill="none" xmlns="http://www.w3.org/2000/svg">
<path d="M16.2747 22.0803H11.6942C10.8604 22.0803 10.8604 20.8203 11.6942 20.8203H16.2747C17.1086 20.8203 17.1086 22.0803 16.2747 22.0803Z" fill="white"/>
<path d="M19.5871 24.6028H8.38154C7.5477 24.6028 7.5477 23.3428 8.38154 23.3428H19.5871C20.421 23.3428 20.421 24.6028 19.5871 24.6028Z" fill="white"/>
<path d="M13.3546 3.39722C10.5776 3.54758 8.07689 4.6701 6.15302 6.40386L8.55401 8.80486C9.83333 7.6927 11.4722 6.93894 13.3546 6.7995V3.39722Z" fill="white"/>
<path d="M5.66048 14.4964C5.79432 12.661 6.51756 11.0347 7.66416 9.69688L5.25756 7.29028C3.51204 9.229 2.40212 11.6751 2.25568 14.4964H5.66048Z" fill="white"/>
<path d="M5.65488 15.7563H2.25568C2.38728 18.2338 3.27208 20.5113 4.70344 22.3492C4.92212 22.6298 5.3382 22.6603 5.60952 22.4301L7.23576 21.0525C7.50008 20.8285 7.52612 20.4427 7.31696 20.1663C6.37532 18.9223 5.7778 17.4055 5.65488 15.7563Z" fill="white"/>
<path d="M24.045 9.04712C23.4766 9.74516 22.633 10.7803 21.6899 11.9353C22.1012 12.9198 22.3423 13.9925 22.3423 15.1265C22.3423 17.0319 21.7048 18.7883 20.6312 20.1942C20.4285 20.4596 20.4859 20.8418 20.7413 21.0569L22.3602 22.4196C22.6349 22.6509 23.0555 22.6193 23.2758 22.3356C24.8231 20.3446 25.7443 17.843 25.7443 15.1262C25.7446 12.866 25.1118 10.801 24.045 9.04712Z" fill="white"/>
<path d="M23.2952 7.97115C21.2358 5.31367 18.0863 3.58551 14.6146 3.39819V6.80271C16.7737 6.96735 18.9916 7.97367 20.5663 9.98743C20.5663 9.98743 13.0651 15.5555 12.7982 15.8226C12.1848 16.4361 12.1848 17.431 12.7982 18.0444C13.4117 18.6579 14.4066 18.6579 15.02 18.0444C15.4176 17.6466 23.2952 7.97115 23.2952 7.97115ZM23.2638 8.00979C23.2641 8.00979 23.2641 8.00951 23.2641 8.00951L23.2638 8.00979Z" fill="white"/>
</svg>
