<svg width="28" height="28" viewBox="0 0 28 28" fill="none" xmlns="http://www.w3.org/2000/svg">
<path d="M16.5667 2.33325H13.7667C13.3798 2.33325 13.0667 2.64639 13.0667 3.03325C13.0667 3.42011 13.3798 3.73325 13.7667 3.73325H16.5667C16.9535 3.73325 17.2667 3.42011 17.2667 3.03325C17.2667 2.64639 16.9535 2.33325 16.5667 2.33325Z" fill="white"/>
<path d="M19.6 0H8.39998C6.85626 0 5.59998 1.25628 5.59998 2.8V25.2C5.59998 26.7437 6.85626 28 8.39998 28H19.6C21.1437 28 22.4 26.7437 22.4 25.2V2.8C22.4 1.25628 21.1437 0 19.6 0ZM21 25.2C21 25.9733 20.3733 26.6 19.6 26.6H8.39998C7.62669 26.6 6.99998 25.9733 6.99998 25.2V2.8C6.99998 2.02672 7.62669 1.4 8.39998 1.4H19.6C20.3733 1.4 21 2.02672 21 2.8V25.2Z" fill="white"/>
<path d="M14 25.6667C14.7732 25.6667 15.4 25.0399 15.4 24.2667C15.4 23.4935 14.7732 22.8667 14 22.8667C13.2268 22.8667 12.6 23.4935 12.6 24.2667C12.6 25.0399 13.2268 25.6667 14 25.6667Z" fill="white"/>
<path d="M11.4333 3.73325C11.8199 3.73325 12.1333 3.41985 12.1333 3.03325C12.1333 2.64665 11.8199 2.33325 11.4333 2.33325C11.0467 2.33325 10.7333 2.64665 10.7333 3.03325C10.7333 3.41985 11.0467 3.73325 11.4333 3.73325Z" fill="white"/>
</svg>
