<svg width="20" height="20" viewBox="0 0 20 20" fill="none" xmlns="http://www.w3.org/2000/svg">
<path d="M8.24563 1C4.25286 1 1 4.25286 1 8.24563C1 12.2384 4.25286 15.4913 8.24563 15.4913C9.97277 15.4913 11.5605 14.8811 12.8073 13.8672L17.7096 18.7696C17.7787 18.8415 17.8614 18.8989 17.953 18.9385C18.0445 18.978 18.143 18.9989 18.2428 19C18.3425 19.001 18.4414 18.9821 18.5337 18.9444C18.626 18.9067 18.7099 18.851 18.7804 18.7804C18.851 18.7099 18.9067 18.626 18.9444 18.5337C18.9821 18.4414 19.001 18.3425 19 18.2428C18.9989 18.143 18.978 18.0445 18.9385 17.953C18.8989 17.8614 18.8415 17.7787 18.7696 17.7096L13.8672 12.8073C14.8811 11.5605 15.4913 9.97277 15.4913 8.24563C15.4913 4.25286 12.2384 1 8.24563 1ZM8.24563 2.4991C11.4282 2.4991 13.9922 5.06303 13.9922 8.24563C13.9922 9.796 13.3806 11.1967 12.3886 12.2286C12.3275 12.2735 12.2735 12.3275 12.2286 12.3886C11.1967 13.3806 9.796 13.9922 8.24563 13.9922C5.06303 13.9922 2.4991 11.4282 2.4991 8.24563C2.4991 5.06303 5.06303 2.4991 8.24563 2.4991Z" fill="black"/>
</svg>
