<svg width="24" height="24" viewBox="0 0 24 24" fill="none" xmlns="http://www.w3.org/2000/svg">
<path d="M11.1516 3.50003C8.34766 3.50003 6.06072 5.78697 6.06072 8.59094C6.06072 10.3438 6.95561 11.9006 8.31072 12.8182C5.71697 13.9319 3.87891 16.5057 3.87891 19.5H5.33345C5.33345 17.3978 6.44425 15.5682 8.10618 14.5455C8.59482 15.7444 9.78516 16.5909 11.1516 16.5909C12.5181 16.5909 13.7085 15.7444 14.1971 14.5455C15.859 15.5682 16.9698 17.3978 16.9698 19.5H18.4244C18.4244 16.5057 16.5863 13.9319 13.9925 12.8182C15.3477 11.9006 16.2425 10.3438 16.2425 8.59094C16.2425 5.78697 13.9556 3.50003 11.1516 3.50003ZM11.1516 4.95458C13.1687 4.95458 14.788 6.5739 14.788 8.59094C14.788 10.608 13.1687 12.2273 11.1516 12.2273C9.13459 12.2273 7.51527 10.608 7.51527 8.59094C7.51527 6.5739 9.13459 4.95458 11.1516 4.95458ZM11.1516 13.6819C11.7482 13.6819 12.3164 13.7671 12.8562 13.9319C12.6033 14.6336 11.9442 15.1364 11.1516 15.1364C10.359 15.1364 9.69993 14.6336 9.44709 13.9319C9.98686 13.7671 10.555 13.6819 11.1516 13.6819Z" fill="#191E36"/>
</svg>
