<svg width="18" height="18" viewBox="0 0 18 18" fill="none" xmlns="http://www.w3.org/2000/svg">
<g clip-path="url(#clip0_74_507)">
<path d="M17.602 4.07176L17.6245 4.21876C17.407 3.44701 16.8197 2.85151 16.0735 2.63476L16.0577 2.63101C14.6545 2.25001 9.00772 2.25001 9.00772 2.25001C9.00772 2.25001 3.37522 2.24251 1.95772 2.63101C1.19722 2.85151 0.609221 3.44701 0.395471 4.20301L0.391721 4.21876C-0.132529 6.95701 -0.136279 10.2473 0.414971 13.179L0.391721 13.0305C0.609221 13.8023 1.19647 14.3978 1.94272 14.6145L1.95847 14.6183C3.36022 15 9.00847 15 9.00847 15C9.00847 15 14.6402 15 16.0585 14.6183C16.8197 14.3978 17.4077 13.8023 17.6215 13.0463L17.6252 13.0305C17.8637 11.757 18.0002 10.2915 18.0002 8.79451C18.0002 8.73976 18.0002 8.68426 17.9995 8.62876C18.0002 8.57776 18.0002 8.51701 18.0002 8.45626C18.0002 6.95851 17.8637 5.49301 17.602 4.07176ZM7.20622 11.3633V5.89351L11.9057 8.63251L7.20622 11.3633Z" fill="white"/>
</g>
<defs>
<clipPath id="clip0_74_507">
<rect width="18" height="18" fill="white"/>
</clipPath>
</defs>
</svg>
